<?xml version="1.0" encoding="UTF-8" standalone="no"?>
<!-- Created with Inkscape (http://www.inkscape.org/) -->

<svg
   width="252mm"
   height="252mm"
   viewBox="0 0 252 252"
   version="1.1"
   id="svg5"
   inkscape:version="1.3.2 (091e20ef0f, 2023-11-25, custom)"
   sodipodi:docname="alis-logo-sprite.svg"
   xmlns:inkscape="http://www.inkscape.org/namespaces/inkscape"
   xmlns:sodipodi="http://sodipodi.sourceforge.net/DTD/sodipodi-0.dtd"
   xmlns="http://www.w3.org/2000/svg"
   xmlns:svg="http://www.w3.org/2000/svg">
  <sodipodi:namedview
     id="namedview7"
     pagecolor="#ffffff"
     bordercolor="#666666"
     borderopacity="1.0"
     inkscape:pageshadow="2"
     inkscape:pageopacity="0.0"
     inkscape:pagecheckerboard="0"
     inkscape:document-units="mm"
     showgrid="false"
     inkscape:zoom="0.54677765"
     inkscape:cx="586.16149"
     inkscape:cy="294.45242"
     inkscape:window-width="1366"
     inkscape:window-height="700"
     inkscape:window-x="0"
     inkscape:window-y="0"
     inkscape:window-maximized="1"
     inkscape:current-layer="layer1"
     width="252mm"
     inkscape:showpageshadow="2"
     inkscape:deskcolor="#d1d1d1">
    <inkscape:grid
       type="xygrid"
       id="grid824"
       originx="-21.156764"
       originy="-52.895329"
       spacingy="1"
       spacingx="1"
       units="mm"
       visible="false" />
  </sodipodi:namedview>
  <defs
     id="defs2" />
  <g
     inkscape:label="レイヤー 1"
     inkscape:groupmode="layer"
     id="layer1"
     transform="translate(-21.156763,-52.89533)"
     sodipodi:insensitive="true">
    <path
       id="path974"
       style="fill:#00ffff;stroke:none;stroke-width:1.12313px;stroke-linecap:butt;stroke-linejoin:miter;stroke-opacity:1"
       d="M 143.69223,57.438971 C 85.777327,57.783114 31.93809,171.20497 32.857807,239.65062 l 31.172449,60.69909 c -15.051945,-47.73908 16.716787,-95.31153 83.126504,-163.88476 66.41071,68.57403 98.17856,116.14812 83.12651,163.88754 L 261.45572,239.6534 C 262.37544,171.20775 208.5362,57.785884 150.6213,57.44177 c -1.15369,-0.0071 -2.30801,0.03028 -3.46454,0.1144 v -0.0028 c -1.15652,-0.08412 -2.31085,-0.121255 -3.46453,-0.114399 z m 3.46453,0.198051 v 0.0029 a 21.424558,39.234837 0 0 1 18.52494,19.615618 21.424558,39.234837 0 0 1 0,39.23403 21.424558,39.234837 0 0 1 -18.52494,19.61558 v -0.003 a 21.424558,39.234837 0 0 1 -18.52493,-19.61563 21.424558,39.234837 0 0 1 0,-39.234033 21.424558,39.234837 0 0 1 18.52493,-19.615561 z" />
  </g>
</svg>
